<?xml version="1.0" encoding="utf-8"?>
<!-- Generator: Adobe Illustrator 23.0.5, SVG Export Plug-In . SVG Version: 6.00 Build 0)  -->
<svg version="1.1" id="Слой_1" xmlns="http://www.w3.org/2000/svg" xmlns:xlink="http://www.w3.org/1999/xlink" x="0px" y="0px"
	 viewBox="0 0 512 512" style="enable-background:new 0 0 512 512;" xml:space="preserve">
<style type="text/css">
	.st0{fill:#FFFFFF;}
</style>
<g id="XMLID_1_">
	<g>
		<path class="st0" d="M367.6,216l-111.2,45.8L145.2,216l96.2-40.3V18.8c0-10.4,6.7-18.8,15-18.8c8.3,0,15,8.4,15,18.8v156.9
			L367.6,216z"/>
	</g>
</g>
<g id="XMLID_2_">
	<g>
		<path class="st0" d="M241.5,295.2v199L134.2,450L20.9,510.5c-1.9,1-3.9,1.5-5.9,1.5c-5.8,0-11.4-4.3-13.8-11.4
			C-2,491,1.5,480,9.1,475.9l103.4-55.2V242.3L241.5,295.2z"/>
	</g>
</g>
<g id="XMLID_3_">
	<g>
		<path class="st0" d="M502.9,473.1c7.6,4,11.2,15.2,7.9,24.7c-2.4,7.2-8,11.4-13.8,11.4c-2,0-3.9-0.5-5.9-1.5l-110-58.7
			l-109.7,45.2v-199l128.9-53.1v176.3L502.9,473.1z"/>
	</g>
</g>
</svg>
