<?xml version="1.0" encoding="utf-8"?>
<!-- Generator: Adobe Illustrator 23.0.5, SVG Export Plug-In . SVG Version: 6.00 Build 0)  -->
<svg version="1.1" id="bold" xmlns="http://www.w3.org/2000/svg" xmlns:xlink="http://www.w3.org/1999/xlink" x="0px" y="0px"
	 viewBox="0 0 512 512" style="enable-background:new 0 0 512 512;" xml:space="preserve">
<style type="text/css">
	.st0{fill:#FFFFFF;}
</style>
<path class="st0" d="M176,453.3c-52.9,0-96-43.1-96-96c0-10.2,1.5-20,4.5-28.9c3.7-11.2,15.8-17.2,27-13.5
	c11.2,3.7,17.2,15.8,13.5,27c-1.5,4.6-2.3,9.8-2.3,15.4c0,29.4,23.9,53.3,53.3,53.3c24.4,0,46.2-17.2,51.8-40.9
	c2.7-11.5,14.2-18.6,25.6-15.9c11.5,2.7,18.6,14.2,15.9,25.6C259.1,423,220.8,453.3,176,453.3L176,453.3z"/>
<path class="st0" d="M475.3,481.6c-1.4,0-2.9-0.2-4.2-0.7l-460-154.4C4.5,324.3,0,317.3,0,309.4V202.5c0-7.9,4.5-14.9,11.1-17.1
	l460-154.3c4.6-1.4,9.6-0.4,13.5,2.9c3.8,3.3,6.1,8.7,6.1,14.2v415.6c0,5.6-2.3,10.9-6.1,14.2C481.8,480.4,478.5,481.6,475.3,481.6
	L475.3,481.6z"/>
<path class="st0" d="M490.7,512c-11.8,0-21.3-11.2-21.3-24.9V24.9C469.4,11.1,479,0,490.7,0S512,11.1,512,24.9v462.2
	C512,500.8,502.4,512,490.7,512z"/>
<path class="st0" d="M21.8,346.7c-12,0-21.8-9.6-21.8-21.4V186.7c0-11.8,9.8-21.3,21.8-21.3s21.8,9.6,21.8,21.3v138.7
	C43.7,337.1,33.9,346.7,21.8,346.7z"/>
</svg>
