<?xml version="1.0" encoding="utf-8"?>
<!-- Generator: Adobe Illustrator 23.0.5, SVG Export Plug-In . SVG Version: 6.00 Build 0)  -->
<svg version="1.1" id="Слой_1" xmlns="http://www.w3.org/2000/svg" xmlns:xlink="http://www.w3.org/1999/xlink" x="0px" y="0px"
	 viewBox="0 0 512 512" style="enable-background:new 0 0 512 512;" xml:space="preserve">
<style type="text/css">
	.st0{fill:#FFFFFF;}
</style>
<path class="st0" d="M328.3,158.5H183.7c-13.9,0-25.2,11.3-25.2,25.2v144.6c0,13.9,11.3,25.2,25.2,25.2h144.6
	c13.9,0,25.2-11.3,25.2-25.2V183.7C353.5,169.8,342.2,158.5,328.3,158.5z"/>
<path class="st0" d="M497,202.7c8.3,0,15-6.7,15-15s-6.7-15-15-15h-49.3v-38.3H497c8.3,0,15-6.7,15-15s-6.7-15-15-15h-51.4
	c-5.2-18.4-19.7-32.9-38.1-38.1V15c0-8.3-6.7-15-15-15s-15,6.7-15,15v49.3h-38.3V15c0-8.3-6.7-15-15-15s-15,6.7-15,15v49.3H271V15
	c0-8.3-6.7-15-15-15c-8.3,0-15,6.7-15,15v49.3h-38.3V15c0-8.3-6.7-15-15-15s-15,6.7-15,15v49.3h-38.3V15c0-8.3-6.7-15-15-15
	s-15,6.7-15,15v51.4C86,71.6,71.5,86.1,66.3,104.5H15c-8.3,0-15,6.7-15,15s6.7,15,15,15h49.3v38.3H15c-8.3,0-15,6.7-15,15
	s6.7,15,15,15h49.3V241H15c-8.3,0-15,6.7-15,15c0,8.3,6.7,15,15,15h49.3v38.3H15c-8.3,0-15,6.7-15,15s6.7,15,15,15h49.3v38.3H15
	c-8.3,0-15,6.7-15,15s6.7,15,15,15h51.4c5.2,18.4,19.7,32.9,38.1,38.1V497c0,8.3,6.7,15,15,15s15-6.7,15-15v-49.3h38.3V497
	c0,8.3,6.7,15,15,15s15-6.7,15-15v-49.3H241V497c0,8.3,6.7,15,15,15c8.3,0,15-6.7,15-15v-49.3h38.3V497c0,8.3,6.7,15,15,15
	s15-6.7,15-15v-49.3h38.3V497c0,8.3,6.7,15,15,15s15-6.7,15-15v-51.4c18.4-5.2,32.9-19.7,38.1-38.1H497c8.3,0,15-6.7,15-15
	s-6.7-15-15-15h-49.3v-38.3H497c8.3,0,15-6.7,15-15s-6.7-15-15-15h-49.3V271H497c8.3,0,15-6.7,15-15s-6.7-15-15-15h-49.3v-38.3H497z
	 M383.5,328.3c0,30.4-24.7,55.2-55.2,55.2H183.7c-30.4,0-55.2-24.8-55.2-55.2V183.7c0-30.4,24.8-55.2,55.2-55.2h144.6
	c30.4,0,55.2,24.8,55.2,55.2V328.3z"/>
</svg>
