<?xml version="1.0" encoding="utf-8"?>
<!-- Generator: Adobe Illustrator 23.0.5, SVG Export Plug-In . SVG Version: 6.00 Build 0)  -->
<svg version="1.1" id="Layer_1" xmlns="http://www.w3.org/2000/svg" xmlns:xlink="http://www.w3.org/1999/xlink" x="0px" y="0px"
	 viewBox="0 0 512 512" style="enable-background:new 0 0 512 512;" xml:space="preserve">
<style type="text/css">
	.st0{fill:#FFFFFF;}
</style>
<g>
	<g>
		<g>
			<path class="st0" d="M330.1,492.6c2.5,2.8,6,4.3,9.6,4.3c1.4,0,3-0.2,4.4-0.8c53.4-19.6,99.3-57,129.4-105.4
				c2.4-4,2.5-8.9,0.4-13c-2.3-4.1-6.5-6.6-11.2-6.6h-90.4c-6.1,0-11.4,4.3-12.6,10.3c-7.4,38.3-18,70.8-31.3,96.7
				C325.9,483,326.6,488.6,330.1,492.6z"/>
			<path class="st0" d="M182,136.1c2.4,3,6.1,4.8,10,4.8h128c3.8,0,7.6-1.8,10-4.8c2.4-3,3.4-7,2.5-10.8C316.1,49.2,286.1,0,255.9,0
				s-60,49.2-76.5,125.3C178.6,129.1,179.6,133.1,182,136.1z"/>
			<path class="st0" d="M330,375.9c-2.4-3-6.1-4.8-10-4.8H192c-3.8,0-7.6,1.8-10,4.8c-2.4,3-3.4,7-2.5,10.8
				C195.9,462.8,226,512,256,512s60-49.2,76.5-125.3C333.4,382.9,332.4,378.9,330,375.9z"/>
			<path class="st0" d="M328.5,345.6c6.5,0,12-4.9,12.7-11.3c2.9-25.1,4.4-51.5,4.4-78.2s-1.4-53.2-4.4-78.2
				c-0.7-6.5-6.2-11.3-12.7-11.3h-145c-6.5,0-12,4.9-12.7,11.3c-2.9,25.1-4.4,51.5-4.4,78.2s1.4,53.2,4.4,78.2
				c0.7,6.5,6.2,11.3,12.7,11.3L328.5,345.6L328.5,345.6z"/>
			<path class="st0" d="M141.7,341.4c2.4-2.8,3.6-6.4,3.2-10c-2.8-25.1-4.1-50.5-4.1-75.5s1.3-50.3,4.1-75.5c0.4-3.6-0.7-7.2-3.2-10
				c-2.4-2.8-5.9-4.2-9.5-4.2H25.3c-5.5,0-10.4,3.5-12.1,8.8C4.4,201.5,0,228.6,0,255.9s4.4,54.5,13.2,80.9
				c1.8,5.3,6.6,8.8,12.1,8.8h106.8C135.7,345.6,139.1,344,141.7,341.4z"/>
			<path class="st0" d="M49.3,140.7h90.4c6.1,0,11.4-4.3,12.6-10.3c7.4-38.3,18-70.8,31.3-96.7c2.4-4.7,1.7-10.4-1.8-14.3
				c-3.5-4-9.1-5.4-14-3.5C114.5,35.4,68.5,72.8,38.5,121.2c-2.4,4-2.5,8.9-0.4,13C40.5,138.2,44.7,140.7,49.3,140.7z"/>
			<path class="st0" d="M498.9,175.2c-1.8-5.3-6.6-8.8-12.1-8.8H379.9c-3.6,0-7.1,1.6-9.5,4.2c-2.4,2.8-3.6,6.4-3.2,10
				c2.8,25.1,4.1,50.5,4.1,75.5s-1.3,50.3-4.1,75.5c-0.4,3.6,0.7,7.2,3.2,10c2.4,2.8,5.9,4.2,9.5,4.2h106.8c5.5,0,10.4-3.5,12.1-8.8
				c8.8-26.4,13.2-53.5,13.2-80.9S507.7,201.5,498.9,175.2z"/>
			<path class="st0" d="M139.7,371.1H49.3c-4.7,0-8.9,2.5-11.2,6.6c-2.3,4.1-2.2,9,0.4,13c30,48.4,76,85.8,129.4,105.4
				c1.4,0.5,2.9,0.8,4.4,0.8c3.6,0,7.1-1.6,9.6-4.3c3.5-4,4.2-9.6,1.8-14.3c-13.3-25.9-23.9-58.4-31.3-96.7
				C151.1,375.5,145.9,371.1,139.7,371.1z"/>
			<path class="st0" d="M359.6,130.4c1.2,6,6.5,10.3,12.6,10.3h90.4c4.7,0,8.9-2.5,11.2-6.6s2.2-9-0.4-13
				c-30-48.4-76-85.8-129.4-105.4c-4.9-1.8-10.6-0.4-14,3.5c-3.5,4-4.2,9.6-1.8,14.3C341.6,59.6,352.2,92.2,359.6,130.4z"/>
		</g>
	</g>
</g>
</svg>
