<?xml version="1.0" encoding="utf-8"?>
<!-- Generator: Adobe Illustrator 23.0.5, SVG Export Plug-In . SVG Version: 6.00 Build 0)  -->
<svg version="1.1" id="Слой_1" xmlns="http://www.w3.org/2000/svg" xmlns:xlink="http://www.w3.org/1999/xlink" x="0px" y="0px"
	 viewBox="0 0 512 512" style="enable-background:new 0 0 512 512;" xml:space="preserve">
<style type="text/css">
	.st0{fill:#FFFFFF;}
</style>
<g id="XMLID_1_">
	<g>
		<path class="st0" d="M506.9,327.7c6.8,6.8,6.8,17.7,0,24.3l-37.1,36.8c-3.3,3.3-7.9,5-12.2,5c-4.4,0-8.9-1.7-12.2-5
			c-6.8-6.8-6.8-17.7,0-24.3l24.8-24.7l-49.7-49.3l-49.8,49.3l24.8,24.7c6.8,6.8,6.8,17.7,0,24.3c-6.8,6.8-17.8,6.8-24.5,0L334,352
			c-3.2-3.2-5.1-7.6-5.1-12.2c0-4.6,1.8-8.9,5.1-12.2l69.2-68.7v-37.3c-8.3-2.6-16.2-7.2-22.8-13.8l-89.9-89.3L178,230.5
			c0-40-32.8-72.5-73-72.5c-5.5,0-11,0.7-16.2,1.8L217.9,31.5c-0.2,2.4-0.3,4.9-0.3,7.6c0,40,32.7,72.5,73,72.5s73-32.5,73-72.5
			c0-2.5-0.1-5-0.3-7.6l97.4,96.7c22.2,22,22.2,57.6,0,79.6c-6.6,6.5-14.4,11.1-22.8,13.8v37.3L506.9,327.7z"/>
	</g>
</g>
<path class="st0" d="M155.2,427.4c5.9,0,11.8,0.6,17.3,1.7V230.6c0,40-32.7,72.5-73,72.5s-73-32.6-73-72.5v198.6
	c5.5-1.1,11.4-1.7,17.3-1.7H155.2z"/>
<path class="st0" d="M99.6,268.7c21.1,0,38.3-17.1,38.3-38.1s-17.2-38.1-38.3-38.1s-38.3,17.1-38.3,38.1
	C61.2,251.6,78.4,268.7,99.6,268.7z"/>
<path class="st0" d="M285.2,76.2c21.1,0,38.3-17.1,38.3-38.1S306.3,0,285.2,0c-21.1,0-38.3,17.1-38.3,38.1S264,76.2,285.2,76.2z"/>
<path class="st0" d="M149.9,401.7H49.2C22,401.7,0,422.8,0,448.8V497c0,8.3,7,15,15.7,15h167.9c8.7,0,15.7-6.7,15.7-15v-48.2
	C199.2,422.8,177.2,401.7,149.9,401.7z"/>
</svg>
