<?xml version="1.0" encoding="utf-8"?>
<!-- Generator: Adobe Illustrator 23.0.5, SVG Export Plug-In . SVG Version: 6.00 Build 0)  -->
<svg version="1.1" id="Слой_1" xmlns="http://www.w3.org/2000/svg" xmlns:xlink="http://www.w3.org/1999/xlink" x="0px" y="0px"
	 viewBox="0 0 512 512" style="enable-background:new 0 0 512 512;" xml:space="preserve">
<style type="text/css">
	.st0{fill:#FFFFFF;}
</style>
<g id="XMLID_1_">
	<g>
		<path class="st0" d="M512,437v60c0,8.3-6.7,15-15,15s-15-6.7-15-15v-45h-30v45c0,8.3-6.7,15-15,15s-15-6.7-15-15v-60
			c0-8.3,6.7-15,15-15h15v-30h-61v105c0,8.3-6.7,15-15,15H135c-8.3,0-15-6.7-15-15V392H60v30h15c8.3,0,15,6.7,15,15v60
			c0,8.3-6.7,15-15,15s-15-6.7-15-15v-45H30v45c0,8.3-6.7,15-15,15s-15-6.7-15-15v-60c0-8.3,6.7-15,15-15h15v-45c0-8.3,6.7-15,15-15
			c66.2,0,114.1,0,166,0v-30H106c-8.3,0-15-6.7-15-15V77c0-8.3,6.7-15,15-15h135V15c0-8.3,6.7-15,15-15c8.3,0,15,6.7,15,15v47h135
			c8.3,0,16,6.7,16,15v240c0,8.3-7.7,15-16,15H301v30c51.9,0,99.8,0,166,0c8.3,0,15,6.7,15,15v45h15C505.3,422,512,428.7,512,437z"
			/>
	</g>
</g>
</svg>
