<?xml version="1.0" encoding="utf-8"?>
<!-- Generator: Adobe Illustrator 23.0.5, SVG Export Plug-In . SVG Version: 6.00 Build 0)  -->
<svg version="1.1" id="Capa_1" xmlns="http://www.w3.org/2000/svg" xmlns:xlink="http://www.w3.org/1999/xlink" x="0px" y="0px"
	 viewBox="0 0 512 512" style="enable-background:new 0 0 512 512;" xml:space="preserve">
<style type="text/css">
	.st0{fill:#FFFFFF;}
</style>
<g>
	<g id="XMLID_2_">
		<g>
			<path class="st0" d="M401.3,30.9v20.4H110.9V30.9c0-17,13.8-30.9,30.9-30.9h228.5C387.4,0,401.3,13.8,401.3,30.9z M367,34.1
				c0-4.7-3.8-8.5-8.5-8.5H350c-4.7,0-8.5,3.8-8.5,8.5s3.8,8.5,8.5,8.5h8.5C363.2,42.7,367,38.8,367,34.1z M307.3,34.1
				c0-4.7-3.8-8.5-8.5-8.5h-85.3c-4.7,0-8.5,3.8-8.5,8.5s3.8,8.5,8.5,8.5h85.3C303.5,42.7,307.3,38.8,307.3,34.1z"/>
		</g>
	</g>
</g>
<g>
	<g id="XMLID_1_">
		<g>
			<rect x="110.9" y="68.3" class="st0" width="290.2" height="341.3"/>
		</g>
	</g>
</g>
<g>
	<g id="XMLID_3_">
		<g>
			<path class="st0" d="M401.3,426.7v54.5c0,17-13.8,30.9-30.8,30.9H141.9c-17,0-30.8-13.8-30.8-30.9v-54.5L401.3,426.7L401.3,426.7
				z M290.2,462.9v-4.1c0-13-10.6-23.5-23.5-23.5h-21.2c-13,0-23.5,10.6-23.5,23.5v4.1c0,13,10.6,23.5,23.5,23.5h21.2
				C279.7,486.4,290.2,475.8,290.2,462.9z"/>
		</g>
	</g>
</g>
<path class="st0" d="M100,306.8L56.3,256l43.7-50.8l-31.5-28.9L0,256l68.5,79.6L100,306.8z"/>
<path class="st0" d="M412.1,205.2l43.7,50.8l-43.7,50.8l31.5,28.9l68.5-79.6l-68.5-79.6L412.1,205.2z"/>
</svg>
