<?xml version="1.0" encoding="utf-8"?>
<!-- Generator: Adobe Illustrator 23.0.5, SVG Export Plug-In . SVG Version: 6.00 Build 0)  -->
<svg version="1.1" id="Capa_1" xmlns="http://www.w3.org/2000/svg" xmlns:xlink="http://www.w3.org/1999/xlink" x="0px" y="0px"
	 viewBox="0 0 512 512" style="enable-background:new 0 0 512 512;" xml:space="preserve">
<style type="text/css">
	.st0{fill:#FFFFFF;}
</style>
<g>
	<g>
		<path class="st0" d="M496,0H16C7.2,0,0,6.7,0,15v482c0,8.3,7.2,15,16,15h480c8.8,0,16-6.7,16-15V15C512,6.7,504.8,0,496,0z
			 M187.4,399.5h-68.6c-8.8,0-16-6.7-16-15c0-8.3,7.2-15,16-15h68.6c8.8,0,16,6.7,16,15C203.4,392.8,196.3,399.5,187.4,399.5z
			 M187.4,271h-68.6c-8.8,0-16-6.7-16-15c0-8.3,7.2-15,16-15h68.6c8.8,0,16,6.7,16,15C203.4,264.3,196.3,271,187.4,271z
			 M187.4,142.5h-68.6c-8.8,0-16-6.7-16-15c0-8.3,7.2-15,16-15h68.6c8.8,0,16,6.7,16,15C203.4,135.7,196.3,142.5,187.4,142.5z
			 M404.5,363l-68.6,64.3c-3.1,2.9-7.2,4.4-11.3,4.4c-4.1,0-8.2-1.5-11.3-4.4L279,395.1c-6.2-5.9-6.3-15.4,0-21.2
			c6.2-5.9,16.4-5.9,22.6,0l23,21.5l57.3-53.7c6.2-5.9,16.4-5.9,22.6,0C410.7,347.7,410.7,357.1,404.5,363z M404.5,234.5l-68.6,64.3
			c-3,2.8-7.1,4.4-11.3,4.4c-4.2,0-8.3-1.6-11.3-4.4L279,266.6c-6.3-5.9-6.2-15.4,0-21.2c6.3-5.9,16.4-5.9,22.6,0l23,21.5l57.3-53.7
			c6.2-5.9,16.4-5.9,22.6,0C410.7,219.1,410.7,228.6,404.5,234.5z M404.5,105.9l-68.6,64.3c-3,2.8-7.1,4.4-11.3,4.4
			c-4.2,0-8.3-1.6-11.3-4.4L279,138.1c-6.3-5.9-6.2-15.4,0-21.2c6.3-5.9,16.4-5.9,22.6,0l23,21.5l57.3-53.7c6.2-5.9,16.4-5.9,22.6,0
			C410.7,90.6,410.7,100.1,404.5,105.9z"/>
	</g>
</g>
</svg>
