<?xml version="1.0" encoding="utf-8"?>
<!-- Generator: Adobe Illustrator 23.0.5, SVG Export Plug-In . SVG Version: 6.00 Build 0)  -->
<svg version="1.1" id="Capa_1" xmlns="http://www.w3.org/2000/svg" xmlns:xlink="http://www.w3.org/1999/xlink" x="0px" y="0px"
	 viewBox="0 0 512 512" style="enable-background:new 0 0 512 512;" xml:space="preserve">
<style type="text/css">
	.st0{fill:#FFFFFF;}
</style>
<g>
	<g>
		<path class="st0" d="M501.9,482.8c-6.3-3.7-44.7-27.5-65.3-70.5c48-44.9,75.3-107.4,75.3-171.3c0-132.3-115.4-241-256-241
			S0,108.7,0,241s115.4,241,256,241c18.9,0,39.1-1.8,67.1-7.6c73.5,39.1,139.5,38,164.6,37.6c11.2-0.1,19.3,1.9,23.5-9.7
			C513.9,494.5,509.8,485.5,501.9,482.8z M285.9,362c0,16.6-13.4,30-30,30s-30-13.4-30-30V241c0-16.6,13.4-30,30-30s30,13.4,30,30
			V362z M256,165c-16.6,0-30-13.4-30-30c0-16.6,13.4-30,30-30s30,13.4,30,30C285.9,151.6,272.5,165,256,165z"/>
	</g>
</g>
</svg>
