<?xml version="1.0" encoding="utf-8"?>
<!-- Generator: Adobe Illustrator 23.0.5, SVG Export Plug-In . SVG Version: 6.00 Build 0)  -->
<svg version="1.1" id="Capa_1" xmlns="http://www.w3.org/2000/svg" xmlns:xlink="http://www.w3.org/1999/xlink" x="0px" y="0px"
	 viewBox="0 0 512 512" style="enable-background:new 0 0 512 512;" xml:space="preserve">
<style type="text/css">
	.st0{fill:#FFFFFF;}
</style>
<g id="XMLID_1_">
	<g>
		<path class="st0" d="M512,46v75H0V46C0,21.3,20.3,1,45,1h422C491.8,1,512,21.3,512,46z M468.9,59.3c-0.8-7.7-7.6-13.3-15.3-13.3
			h-89.2c-7.7,0-14.5,5.7-15.3,13.3c-1,9,6.1,16.7,14.9,16.7h90C462.8,76,469.9,68.4,468.9,59.3z M195.9,62.9
			c1.2-9.8-7-18-16.8-16.8c-6.7,0.8-12.1,6.2-12.9,12.9c-1.2,9.8,7,18,16.8,16.8C189.6,75,195,69.6,195.9,62.9z M135.9,62.9
			c1.2-9.8-7-18-16.8-16.8c-6.7,0.8-12.1,6.2-12.9,12.9c-1.2,9.8,7,18,16.8,16.8C129.6,75,135,69.6,135.9,62.9z M72.2,71.7
			c9.5-13-0.5-27.2-13.2-25.6C52.4,47,47,52.4,46.1,59.1c-1.6,12.7,12.6,22.7,25.6,13.2C71.9,72.1,72.1,71.9,72.2,71.7z"/>
	</g>
</g>
<path class="st0" d="M0,151v315c0,24.8,20.2,45,45,45h422c24.8,0,45-20.2,45-45V151H0z M175.4,364.3c6.5,5.2,7.5,14.6,2.3,21.1
	s-14.6,7.5-21.1,2.3l-75-60c-7.5-6-7.5-17.4,0-23.4l75-60c6.5-5.2,15.9-4.1,21.1,2.3c5.2,6.5,4.1,15.9-2.3,21.1L115,316L175.4,364.3
	z M314.8,216.9l-90,210c-3.3,7.6-12.1,11.1-19.7,7.9c-7.6-3.3-11.1-12.1-7.9-19.7l90-210c3.3-7.6,12.1-11.1,19.7-7.9
	S318.1,209.3,314.8,216.9L314.8,216.9z M430.4,327.7l-75,60c-6.5,5.2-15.9,4.1-21.1-2.3c-5.2-6.5-4.1-15.9,2.3-21.1L397,316
	l-60.4-48.3c-6.5-5.2-7.5-14.6-2.3-21.1s14.6-7.5,21.1-2.3l75,60C437.9,310.3,437.9,321.7,430.4,327.7L430.4,327.7z"/>
</svg>
