<?xml version="1.0" encoding="utf-8"?>
<!-- Generator: Adobe Illustrator 23.0.5, SVG Export Plug-In . SVG Version: 6.00 Build 0)  -->
<svg version="1.1" id="Слой_1" xmlns="http://www.w3.org/2000/svg" xmlns:xlink="http://www.w3.org/1999/xlink" x="0px" y="0px"
	 viewBox="0 0 228.4 228.4" style="enable-background:new 0 0 228.4 228.4;" xml:space="preserve">
<style type="text/css">
	.st0{fill:#FFFFFF;}
</style>
<g>
	<path class="st0" d="M114.4,117.6c32.3,0,58.6-26.3,58.6-58.7S146.7,0.2,114.4,0.2S55.8,26.5,55.8,58.9S82.1,117.6,114.4,117.6z"/>
	<path class="st0" d="M228.6,228.6c0-11.1,0-22.2,0-33.4c0-22.3-14.3-42.2-35.5-49.1c0,0-0.1,0-0.1,0c-7.6-1.9-31-5.1-31-5.1
		c-2.6-0.8-5.5,0.6-6.4,3.2c-10.2,28.2-20.5,56.3-30.7,84.5c19.1,0,38.2,0,57.3,0C197.6,228.6,213.1,228.6,228.6,228.6z"/>
	<path class="st0" d="M104,228.6c-10.2-28.2-20.5-56.3-30.7-84.5c-0.8-2.1-2.8-3.4-4.9-3.4c-0.5,0-24.5,3.4-32.5,5.4
		C14,151.5,0.2,173,0.2,195.5c0,11,0,22.1,0,33.1c17.9,0,35.7,0,53.6,0C70.5,228.6,87.3,228.6,104,228.6z"/>
	<path class="st0" d="M127.7,139.1c-1.4-1.5-3.5-2.3-5.5-2.3h-15.5c-2.1,0-4.1,0.8-5.5,2.3c-2.2,2.4-2.5,5.8-0.9,8.5l8.3,12.5
		l-3.9,32.8l7.6,20.3c0.7,2,3.6,2,4.4,0l7.6-20.3l-3.9-32.8l8.3-12.5C130.2,144.9,129.8,141.5,127.7,139.1z"/>
</g>
</svg>
