<svg xmlns="http://www.w3.org/2000/svg" xmlns:xlink="http://www.w3.org/1999/xlink" viewBox="0 0 767.08 375.28"><defs><style>.cls-1,.cls-2,.cls-3,.cls-4{fill-rule:evenodd;}.cls-1{fill:url(#linear-gradient);}.cls-2{fill:url(#radial-gradient);}.cls-3{fill:url(#radial-gradient-2);}.cls-4{fill:url(#radial-gradient-3);}</style><linearGradient id="linear-gradient" x1="101.68" y1="42.02" x2="101.68" y2="341.16" gradientUnits="userSpaceOnUse"><stop offset="0" stop-color="red"/><stop offset="0.09" stop-color="#f70206"/><stop offset="0.22" stop-color="#e00716"/><stop offset="0.39" stop-color="#ba0f31"/><stop offset="0.58" stop-color="#861a57"/><stop offset="0.8" stop-color="#442886"/><stop offset="1" stop-color="#0037b6"/></linearGradient><radialGradient id="radial-gradient" cx="222.44" cy="107.42" r="106.1" gradientUnits="userSpaceOnUse"><stop offset="0" stop-color="#6a0000"/><stop offset="0.16" stop-color="#6e0000"/><stop offset="0.32" stop-color="#7b0000"/><stop offset="0.49" stop-color="#8f0100"/><stop offset="0.66" stop-color="#ac0200"/><stop offset="0.83" stop-color="#d20300"/><stop offset="1" stop-color="#ff0400"/></radialGradient><radialGradient id="radial-gradient-2" cx="222.8" cy="106.88" r="106.37" gradientUnits="userSpaceOnUse"><stop offset="0" stop-color="#5f0096"/><stop offset="0.16" stop-color="#630195"/><stop offset="0.33" stop-color="#700593"/><stop offset="0.5" stop-color="#840c8f"/><stop offset="0.67" stop-color="#a1158a"/><stop offset="0.84" stop-color="#c62183"/><stop offset="1" stop-color="#f12f7b"/></radialGradient><radialGradient id="radial-gradient-3" cx="224.29" cy="106.51" r="105.22" gradientUnits="userSpaceOnUse"><stop offset="0" stop-color="#00037a"/><stop offset="0.17" stop-color="#00077e"/><stop offset="0.34" stop-color="#00138b"/><stop offset="0.52" stop-color="#00269f"/><stop offset="0.7" stop-color="#0042bc"/><stop offset="0.88" stop-color="#0065e1"/><stop offset="1" stop-color="#0081ff"/></radialGradient></defs><title>Asset 4</title><g id="Layer_2" data-name="Layer 2"><g id="Layer_1-2" data-name="Layer 1"><path class="cls-1" d="M0,52.35H0c24.76,0,35.25,17.27,46.38,35.8h0l91.16,156.33c4.3,7.81,8.54,17.23,8.41,26.07h0c-.34,23-30.19,31.41-48,32.29h0c-13.08.64-26-2.42-37.62-7.65h0L53,304.54c4.23,18,20.92,39.93,43.87,39.77h0c39.84-.29,60.77-36.73,76.79-66.4h0l29.68-55L117.22,75.22c-8-13.22,5.1-22.83,19-22.91h0l3.17-12.24H3.18Z"/><path class="cls-2" d="M223.73,0a105.42,105.42,0,0,0-75.17,31.37l29,29a64.14,64.14,0,0,1,78.13-10.45l20.72-35.89A105.23,105.23,0,0,0,223.73,0Z"/><path class="cls-3" d="M329.47,105.74a105.7,105.7,0,0,0-53-91.69L255.71,49.94a64.18,64.18,0,0,1,29.23,73.51l40.61,10.89A105.84,105.84,0,0,0,329.47,105.74Z"/><path class="cls-4" d="M284.94,123.45a64.21,64.21,0,0,1-61.21,46.1v41.93a105.79,105.79,0,0,0,101.82-77.14Z"/><path d="M341.28,144.48h10.84v82.9H341.28Zm7.25,0H374v10.26H348.53Zm20.12,0h10.84v82.9H368.65Z"/><path d="M392.63,168.2h10.83v83.25H392.63Zm14.45,57.36a14.75,14.75,0,0,1-4.42-7.47l.8-9.18a14,14,0,0,0,.83,5.08,7,7,0,0,0,2.39,3.22,6.31,6.31,0,0,0,3.74,1.11,6,6,0,0,0,5.1-2.54,11.89,11.89,0,0,0,1.85-7.1V186.45a11.28,11.28,0,0,0-1.85-6.87,6,6,0,0,0-5.1-2.49,6.44,6.44,0,0,0-3.74,1.09,6.78,6.78,0,0,0-2.39,3.13,13.17,13.17,0,0,0-.83,4.91l-1.2-8.21a18,18,0,0,1,5.19-8,11.32,11.32,0,0,1,7.47-2.83,11.87,11.87,0,0,1,7.21,2.2,13.35,13.35,0,0,1,4.54,6.41A30.1,30.1,0,0,1,428.21,186v23.09a29.2,29.2,0,0,1-1.63,10.35,14,14,0,0,1-4.7,6.56,12.32,12.32,0,0,1-7.47,2.25A10.85,10.85,0,0,1,407.08,225.56Z"/><path d="M447.53,226.22a13.71,13.71,0,0,1-5.87-5.88,19.63,19.63,0,0,1-2-9.26v-27a19.2,19.2,0,0,1,2-9.15,13.44,13.44,0,0,1,5.87-5.76,20.06,20.06,0,0,1,9.21-2,19.66,19.66,0,0,1,9.15,2,13.14,13.14,0,0,1,5.76,5.76,19.69,19.69,0,0,1,2,9.15v27.2a19.87,19.87,0,0,1-2,9.18,13.26,13.26,0,0,1-5.76,5.81,19.41,19.41,0,0,1-9.15,2A19.69,19.69,0,0,1,447.53,226.22Zm13.63-10.32a7.38,7.38,0,0,0,1.63-5.11V184.51a7.19,7.19,0,0,0-1.63-5,6.58,6.58,0,0,0-9,0,7.1,7.1,0,0,0-1.65,5v26.28a7.35,7.35,0,0,0,1.63,5.08,6.59,6.59,0,0,0,9.06,0Z"/><path d="M493.35,225.93a15.13,15.13,0,0,1-6.16-6.7,24,24,0,0,1-2.14-10.6v-20.7a27.43,27.43,0,0,1,2.08-11.23,15.37,15.37,0,0,1,6-7.1,17.63,17.63,0,0,1,9.46-2.43,19.1,19.1,0,0,1,9.58,2.26,14.56,14.56,0,0,1,6.07,6.55,23.71,23.71,0,0,1,2.08,10.41V202H492.63v-8.95H510v-6.44q0-4.62-1.91-7.13a6.46,6.46,0,0,0-5.45-2.51,6.09,6.09,0,0,0-5.3,2.68c-1.26,1.79-1.88,4.33-1.88,7.64v21.61a10.36,10.36,0,0,0,2,6.76,6.92,6.92,0,0,0,5.65,2.42,7.2,7.2,0,0,0,5.22-1.8,6.77,6.77,0,0,0,1.85-5.1v-.4h10.38v.4q0,8.16-4.57,12.6t-12.88,4.45A19.21,19.21,0,0,1,493.35,225.93Z"/><path d="M533.09,168.2h10.83v59.18H533.09ZM538.73,193h20v10.26h-20Zm11.12,9.8,7.92-7.69,14.6,32.32H560.85Zm.06-9,9.29-25.54h11.12L557.6,201.67Z"/><path d="M575.82,168.2h32v10.26h-32Zm10.61,0h10.83v59.18H586.43Z"/><path d="M618.15,168.2H629v59.18H618.15Zm6.45,25h23.55v10.27H624.6Zm16.76-25h10.83v59.18H641.36Z"/><path d="M665.91,168.2h10.83v59.18H665.91Zm6.5,48.92h10a6.35,6.35,0,0,0,4.85-1.82,7.23,7.23,0,0,0,1.71-5.13v-4.45a8.56,8.56,0,0,0-.77-3.79,5.34,5.34,0,0,0-2.25-2.4,7.18,7.18,0,0,0-3.54-.83h-10V188.44h11.85a17.71,17.71,0,0,1,8.39,1.85,12.54,12.54,0,0,1,5.3,5.39,18.44,18.44,0,0,1,1.82,8.56v7.41a17.32,17.32,0,0,1-1.94,8.49,12.67,12.67,0,0,1-5.7,5.39,20.15,20.15,0,0,1-9,1.85H672.41Zm31.81-48.92h10.83v59.18H704.22Z"/><path d="M752.83,227.33V187.19l1.37,1.48-16.77,38.66h-8.66V168.2h10.09v40.14l-1.37-1.48,16.88-38.66h8.55v59.13Zm-18.22-74.44q-3.57-3.73-3.56-10.52v-4h8.78v4.11a6.24,6.24,0,0,0,1.25,4.16,4.39,4.39,0,0,0,3.54,1.48h1a4.39,4.39,0,0,0,3.54-1.48,6.3,6.3,0,0,0,1.25-4.16v-4.11h8.78v4q0,6.8-3.56,10.52t-10,3.74h-1Q738.17,156.63,734.61,152.89Z"/><path d="M225.32,226.8h15V341.21h-15Zm10,0h35.17V241H235.32Zm27.77,0h15V341.21h-15Z"/><path d="M293,259.53H307.9V374.41H293Zm19.95,79.16a20.27,20.27,0,0,1-6.1-10.31l1.1-12.67a19.19,19.19,0,0,0,1.14,7,9.5,9.5,0,0,0,3.31,4.45,8.69,8.69,0,0,0,5.15,1.53,8.22,8.22,0,0,0,7-3.5q2.56-3.49,2.56-9.79V284.71q0-6.06-2.56-9.48a8.3,8.3,0,0,0-7-3.42,8.8,8.8,0,0,0-5.15,1.49,9.35,9.35,0,0,0-3.31,4.33,18.1,18.1,0,0,0-1.14,6.77l-1.65-11.34A24.81,24.81,0,0,1,313.41,262a15.65,15.65,0,0,1,10.31-3.9,16.42,16.42,0,0,1,9.95,3,18.41,18.41,0,0,1,6.26,8.86,41.37,41.37,0,0,1,2.12,14.08V316a40.62,40.62,0,0,1-2.24,14.28,19.31,19.31,0,0,1-6.49,9A17,17,0,0,1,323,342.39,15,15,0,0,1,312.9,338.69Z"/><path d="M360,336.68q-5-5.7-5-17.19,0-13.77,6.29-20.58t19-6.8h10.46l1.1,13.37H380.33q-5.5,0-8.26,3.5t-2.75,10.51c0,3.2.8,5.58,2.4,7.16s4,2.36,7.2,2.36q5.58,0,8.34-3.11t2.75-9.32l1.65,7.55a25.47,25.47,0,0,1-1.92,10.15,12.7,12.7,0,0,1-5.51,6.1,18.69,18.69,0,0,1-9.09,2Q365.08,342.39,360,336.68Zm30-55.2q0-5-2.63-7.67A9.78,9.78,0,0,0,380,271.1a8.06,8.06,0,0,0-6.49,2.71q-2.32,2.71-2.32,7.67H356.65q0-11.16,6.22-17.27t17.54-6.1a28.52,28.52,0,0,1,13.06,2.76,18.9,18.9,0,0,1,8.27,8,26.23,26.23,0,0,1,2.83,12.62v59.73H390Z"/><path d="M420.27,259.53h15v81.68h-15Zm7.79,34.15H455.6v14.16H428.06Zm15.34,13.53,10.94-10.62,20.14,44.62H458.59Zm.08-12.43,12.83-35.25h15.34L454.1,305.72Z"/><path d="M476,259.53h44.22v14.16H476Zm14.63,0h15v81.68h-15Z"/><path d="M564.42,341.13v-55.4l1.89,2-23.13,53.35h-12v-81.6h13.92v55.39l-1.89-2,23.29-53.35h11.81v81.6Z"/><path d="M594.05,259.53h15v81.68h-15Zm7.79,34.15h27.54v14.16H601.84Zm15.34,13.53,10.94-10.62,20.14,44.62H632.37Zm.08-12.43,12.82-35.25h15.35l-17.55,46.19Z"/><path d="M649,259.53h15.11l17.54,70.58-7.55,17.55Zm55.79,0-24.55,100.8a19.47,19.47,0,0,1-4.21,8.34,18,18,0,0,1-7.75,4.95,35.47,35.47,0,0,1-11.49,1.66h-2.2V361.11h2.2q5.51,0,8.58-2.32a11.56,11.56,0,0,0,4.09-7.12l20.22-92.14Z"/><path d="M752.68,259.53h14.4v81.68H753.7V283.29l1.34,3.47-10,32.57h-9.6l-10.47-31,1.81-5v57.92H713.41V259.53h14.4l12.44,42.25Z"/></g></g></svg>