<?xml version="1.0" encoding="utf-8"?>
<!-- Generator: Adobe Illustrator 23.0.5, SVG Export Plug-In . SVG Version: 6.00 Build 0)  -->
<svg version="1.1" id="Capa_1" xmlns="http://www.w3.org/2000/svg" xmlns:xlink="http://www.w3.org/1999/xlink" x="0px" y="0px"
	 viewBox="0 0 512 512" style="enable-background:new 0 0 512 512;" xml:space="preserve">
<style type="text/css">
	.st0{fill:#FFFFFF;}
</style>
<path class="st0" d="M173.9,260.3c43.5,12.2,74.7,46.5,86.6,84.7c11.4-9.1,25.4-20.4,40.8-33.3l-94.5-94.5
	C194,233.5,182.9,248.3,173.9,260.3L173.9,260.3z"/>
<path class="st0" d="M451.7,0.4C379.1,8,271.2,137,225.6,193.6l98.7,98.7C379.8,244.4,508,129.7,511.9,56.9
	C513.8,22,486.6-3.3,451.7,0.4z"/>
<path class="st0" d="M52.5,326.9C8.8,381.6,45.3,430.3,4.1,473.8c-7.2,7.6-4.6,20,5,24.1c68.3,29.2,154.3,10.3,194.1-31.8
	c37.5-39.5,49.1-107.5,3.6-153C163,269.3,89.5,280.6,52.5,326.9z"/>
</svg>
