<svg id="bold" xmlns="http://www.w3.org/2000/svg" viewBox="0 0 511.24 511.24"><defs><style>.cls-1{fill:#fff;}</style></defs><title>chat-bubbles-with-ellipsis</title><path class="cls-1" d="M433.73,108.24V306.41c0,30-25,53.29-53.29,53.29H147.31L37.4,441.3l16.65-81.6C27.41,354.7.76,333.05.76,306.41V61.62C.76,31.64,32.4,0,60.71,0H378.78c28.31,0,53.29,31.64,53.29,61.62l1.66,46.62ZM353.8,179.85c0-16.65-13.32-30-28.31-30-16.65,0-28.31,15-28.31,30,0,18.32,13.32,30,28.31,30C340.48,211.49,353.8,198.17,353.8,179.85Zm-108.24,0c0-16.65-13.33-30-28.31-30s-28.31,15-28.31,30c0,18.32,13.32,30,28.31,30S245.56,198.17,245.56,179.85Zm-106.58,0c0-16.65-13.32-30-28.31-30s-28.31,15-28.31,30c0,18.32,13.32,30,28.31,30S139,198.17,139,179.85Z" transform="translate(-0.76)"/><path class="cls-1" d="M145.64,388H420.41c28.31,0,41.63-26.65,41.63-59.95V134.89h13.32c25,0,36.64,18.31,36.64,46.62V396.33c0,26.65-11.66,55-36.64,55H472l11.66,59.95-79.93-59.95H195.6c-25,0-48.29-26.65-48.29-55L145.64,388Z" transform="translate(-0.76)"/></svg>