<svg id="bold" xmlns="http://www.w3.org/2000/svg" viewBox="0 0 510.74 511.27"><defs><style>.cls-1{fill:#fff;}</style></defs><title>gamepad-controller</title><path class="cls-1" d="M383,334.73a27.6,27.6,0,1,0-27.6,27.6A27.61,27.61,0,0,0,383,334.73Zm-27.6-48.53a27.6,27.6,0,1,0-27.6-27.59A27.61,27.61,0,0,0,355.44,286.2Zm41.87,13.33a27.6,27.6,0,1,0,27.6-27.6A27.61,27.61,0,0,0,397.31,299.53Zm68.51-65.66c67.57,110.38,40,231.23,40,231.23-4.76,29.5-20.93,49.48-50.43,46.63S362.1,431.8,362.1,431.8c-4.76-6.67-16.18-11.42-24.74-11.42H174.64c-8.56,0-19,4.75-24.74,11.42,0,0-63.76,77.07-93.26,79C27.14,513.63,11,493.65,6.21,464.15c0,0-27.6-120.85,40-231.24s169.38-33.3,169.38-33.3c6.66,4.76,19,8.56,26.64,8.56h27.6c8.56,0,20-3.8,26.64-9.51C297.39,200.56,399.21,123.48,465.82,233.87Zm-270.25,90.4s5.71-10.47,5.71-19c-.95-8.57-6.66-16.18-6.66-16.18h-33.3V254.8a44.32,44.32,0,0,0-18.08-3.8c-10.47,0-17.13,3.8-17.13,3.8V290H90.9a34.07,34.07,0,0,0-4.76,20c1,11.42,5.71,15.23,5.71,15.23h33.31v33.3s5.71,5.71,17.13,5.71a34.16,34.16,0,0,0,19-5.71v-33.3l34.25-1Z" transform="translate(-0.63 -0.73)"/><rect class="cls-1" x="241.57" width="28.55" height="212.2"/></svg>