<?xml version="1.0" encoding="utf-8"?>
<!-- Generator: Adobe Illustrator 23.0.5, SVG Export Plug-In . SVG Version: 6.00 Build 0)  -->
<svg version="1.1" id="Layer_1_1_" xmlns="http://www.w3.org/2000/svg" xmlns:xlink="http://www.w3.org/1999/xlink" x="0px" y="0px"
	 viewBox="0 0 512 512" style="enable-background:new 0 0 512 512;" xml:space="preserve">
<style type="text/css">
	.st0{fill:#FFFFFF;}
</style>
<path class="st0" d="M466.8,185.4l-0.2,0.1C464.1,78.9,371.9-6.1,260.7,0.3C161.9,6,81.9,86,78.1,182.4c-1.5,38.7,8.9,75,28,105.6
	c39,62.6,62.3,133.3,62.3,206.6V512h144.7v-70.6h126.6V326.6H512L466.8,185.4z"/>
<path class="st0" d="M161.5,195H88c-2.1,0-4.2,0.8-5.7,2.3L52.7,227h-6.2c-3.3-9.3-12.1-16-22.5-16c-13.2,0-24,10.8-24,24
	s10.8,24,24,24c10.4,0,19.2-6.7,22.5-16H56c2.1,0,4.2-0.8,5.7-2.3L91.3,211h70.2c3.3,9.3,12.1,16,22.5,16c6.1,0,11.6-2.3,15.8-6.1
	l32.6,18.1c-0.2,1.3-0.4,2.6-0.4,3.9c0,13.2,10.8,24,24,24s24-10.8,24-24c0-1.4-0.2-2.7-0.4-3.9l32.6-18.1c4.2,3.7,9.7,6.1,15.8,6.1
	c13.2,0,24-10.8,24-24c0-10.4-6.7-19.2-16-22.5v-35c9.3-3.3,16-12.1,16-22.5c0-13.2-10.8-24-24-24c-6.1,0-11.6,2.3-15.8,6.1
	L279.6,87c0.2-1.3,0.4-2.6,0.4-3.9c0-13.2-10.8-24-24-24s-24,10.8-24,24c0,1.4,0.2,2.7,0.4,3.9l-32.6,18.1
	c-4.2-3.7-9.7-6.1-15.8-6.1c-10.4,0-19.2,6.7-22.5,16H91.3L61.7,85.3C60.2,83.8,58.1,83,56,83h-9.5C43.2,73.7,34.4,67,24,67
	C10.8,67,0,77.8,0,91s10.8,24,24,24c10.4,0,19.2-6.7,22.5-16h6.2l29.7,29.7c1.5,1.5,3.5,2.3,5.7,2.3h73.5
	c2.4,6.8,7.8,12.1,14.5,14.5v9.5H46.5c-3.3-9.3-12.1-16-22.5-16c-13.2,0-24,10.8-24,24s10.8,24,24,24c10.4,0,19.2-6.7,22.5-16H176
	v9.5C169.2,182.9,163.9,188.2,161.5,195L161.5,195z M24,243c-4.4,0-8-3.6-8-8s3.6-8,8-8s8,3.6,8,8S28.4,243,24,243z M24,99
	c-4.4,0-8-3.6-8-8s3.6-8,8-8s8,3.6,8,8S28.4,99,24,99z M24,171c-4.4,0-8-3.6-8-8s3.6-8,8-8s8,3.6,8,8S28.4,171,24,171z M184,211
	c-4.4,0-8-3.6-8-8s3.6-8,8-8s8,3.6,8,8S188.4,211,184,211z M199.8,140.9l32.6,18.1c-0.2,1.3-0.4,2.6-0.4,3.9s0.2,2.7,0.4,3.9
	l-32.6,18.1c-2.3-2-4.9-3.6-7.8-4.6v-35C194.9,144.5,197.5,142.9,199.8,140.9L199.8,140.9z M312.2,185.1L279.6,167
	c0.2-1.3,0.4-2.6,0.4-3.9s-0.2-2.7-0.4-3.9l32.6-18.1c2.3,2,4.9,3.6,7.8,4.6v35C317.1,181.5,314.5,183.1,312.2,185.1z M207.6,199.1
	l32.6-18.1c2.3,2,4.9,3.6,7.8,4.6v35c-2.9,1-5.5,2.6-7.8,4.6L207.6,207c0.2-1.3,0.4-2.6,0.4-4S207.8,200.3,207.6,199.1z M256,155
	c4.4,0,8,3.6,8,8s-3.6,8-8,8c-4.4,0-8-3.6-8-8S251.6,155,256,155z M264,185.5c2.9-1,5.5-2.6,7.8-4.6l32.6,18.1
	c-0.2,1.3-0.4,2.6-0.4,3.9s0.2,2.7,0.4,3.9l-32.6,18.1c-2.3-2-4.9-3.6-7.8-4.6V185.5z M304.4,126.9L271.8,145
	c-2.3-2-4.9-3.6-7.8-4.6v-35c2.9-1,5.5-2.6,7.8-4.6l32.6,18.1c-0.2,1.3-0.4,2.6-0.4,4S304.2,125.7,304.4,126.9z M248,140.5
	c-2.9,1-5.5,2.6-7.8,4.6L207.6,127c0.2-1.3,0.4-2.6,0.4-3.9s-0.2-2.7-0.4-3.9l32.6-18.1c2.3,2,4.9,3.6,7.8,4.6L248,140.5L248,140.5z
	 M256,251c-4.4,0-8-3.6-8-8s3.6-8,8-8c4.4,0,8,3.6,8,8S260.4,251,256,251z M328,211c-4.4,0-8-3.6-8-8s3.6-8,8-8s8,3.6,8,8
	S332.4,211,328,211z M328,115c4.4,0,8,3.6,8,8s-3.6,8-8,8s-8-3.6-8-8S323.6,115,328,115z M256,75c4.4,0,8,3.6,8,8s-3.6,8-8,8
	c-4.4,0-8-3.6-8-8S251.6,75,256,75z M184,115c4.4,0,8,3.6,8,8s-3.6,8-8,8s-8-3.6-8-8S179.6,115,184,115z"/>
</svg>
