<?xml version="1.0" encoding="utf-8"?>
<!-- Generator: Adobe Illustrator 23.0.5, SVG Export Plug-In . SVG Version: 6.00 Build 0)  -->
<svg version="1.1" id="Capa_1" xmlns="http://www.w3.org/2000/svg" xmlns:xlink="http://www.w3.org/1999/xlink" x="0px" y="0px"
	 viewBox="0 0 512 512" style="enable-background:new 0 0 512 512;" xml:space="preserve">
<style type="text/css">
	.st0{fill:#FFFFFF;}
</style>
<g>
	<g id="XMLID_1_">
		<g>
			<path class="st0" d="M511.5,188v68.3c0,9.5-8.2,17.1-18.3,17.1H402V170.9h91.3C503.4,170.9,511.5,178.7,511.5,188z"/>
			<path class="st0" d="M510.1,385.3c2.4,5.2,1.8,11.4-1.6,16.2c-3.4,4.8-9.1,7.7-15.2,7.7h-54.8v51.2c0,28.2-24.6,51.2-54.8,51.2
				h-91.3c-73,0-146.1,0-219-0.1c0-9.2-0.1-18.3-0.1-27.5c0-23.3,0-46.6,0-69.9c0-10.2-2.3-20.4-6.6-30.3L247,278.4
				c20.1,16.6,52.2,28.1,100.2,28.1H474L510.1,385.3z"/>
			<path class="st0" d="M456.3,136.8H310.7c-21.1,0-40.3,6.9-55.8,18.2L107.5,36.8c47.9-29.4,106.2-41.9,164-34.4
				C353.2,12.9,424.1,65.3,456.3,136.8z"/>
			<path class="st0" d="M365.5,170.9v102.5h-18.3c-58.1,0-91.3-18.7-91.3-51.2c0-28.2,24.6-51.2,54.8-51.2h54.8V170.9z M329,222.2
				c0-9.5-8.2-17.1-18.3-17.1c-10.1,0-18.3,7.6-18.3,17.1s8.2,17.1,18.3,17.1C320.8,239.4,329,231.6,329,222.2z"/>
			<path class="st0" d="M78,58.1L231.2,181c-7.3,12.3-11.8,26.2-11.8,41.2c0,9.9,2.1,19.9,6.3,29.5L48.3,355.5
				c-31.2-38.7-48-84.5-48-133.3C0.3,159.6,28.6,100.2,78,58.1z"/>
		</g>
	</g>
</g>
</svg>
